<?xml version="1.0" encoding="UTF-8"?>
<svg xmlns="http://www.w3.org/2000/svg" width="512" height="512" viewBox="50 70 240 270">
  <defs>
    <linearGradient id="iconGradient" x1="0%" y1="0%" x2="100%" y2="100%">
      <stop offset="0%" style="stop-color:#0E7490;stop-opacity:1" />
      <stop offset="100%" style="stop-color:#155E75;stop-opacity:1" />
    </linearGradient>
  </defs>
  
  <path fill="url(#iconGradient)" fill-rule="evenodd" d="M 118,83 L 118,135 L 104,143 L 95,135 L 93,135 L 75,153 L 82,161 L 82,164 L 74,177 L 71,189 L 65,192 L 59,191 L 59,219 L 69,219 L 71,221 L 74,233 L 82,246 L 82,249 L 75,257 L 94,276 L 102,268 L 106,268 L 118,276 L 119,327 L 163,328 L 182,325 L 205,317 L 221,308 L 237,296 L 258,271 L 269,249 L 276,223 L 277,198 L 272,169 L 261,144 L 248,125 L 229,107 L 214,97 L 196,89 L 173,83 Z M 116,158 L 118,160 L 118,250 L 116,252 L 108,247 L 96,233 L 90,219 L 88,207 L 90,191 L 96,177 L 106,165 Z M 143,106 L 167,106 L 181,109 L 201,117 L 217,128 L 230,141 L 241,157 L 250,179 L 253,195 L 253,216 L 250,231 L 239,256 L 232,266 L 215,283 L 200,293 L 182,300 L 163,304 L 142,303 Z"/>
  
  <path fill="#164E63" fill-rule="evenodd" d="M 161,133 L 161,152 L 176,158 L 190,170 L 199,184 L 203,200 L 202,217 L 197,230 L 183,247 L 176,252 L 161,258 L 161,277 L 172,275 L 187,267 L 197,276 L 216,257 L 208,248 L 218,231 L 221,220 L 232,219 L 232,192 L 223,192 L 220,189 L 217,177 L 208,162 L 216,153 L 197,134 L 187,143 L 174,136 Z"/>
</svg>