<?xml version="1.0" encoding="UTF-8"?>
<svg xmlns="http://www.w3.org/2000/svg" width="496" height="496" viewBox="0 0 496 496">
  <defs>
    <linearGradient id="brainGradient" x1="0%" y1="0%" x2="0%" y2="100%">
      <stop offset="0%" style="stop-color:#00A8A3;stop-opacity:1" />
      <stop offset="50%" style="stop-color:#0077CC;stop-opacity:1" />
      <stop offset="100%" style="stop-color:#120B7A;stop-opacity:1" />
    </linearGradient>
  </defs>
  
  <g stroke="url(#brainGradient)" fill="none" stroke-width="14" stroke-linecap="round" stroke-linejoin="round">
    <path d="M 236 124 L 235 125 L 233 125 L 228 130 L 228 132 L 226 134 L 225 134 L 224 133 L 219 133 L 218 132 L 212 132 L 211 133 L 209 133 L 208 134 L 207 134 L 206 135 L 205 135 L 200 140 L 200 141 L 199 142 L 199 143 L 198 144 L 198 146 L 197 147 L 197 148 L 196 149 L 194 149 L 193 148 L 183 148 L 182 149 L 180 149 L 179 150 L 177 150 L 168 159 L 168 160 L 167 161 L 167 163 L 166 164 L 166 166 L 164 168 L 164 169 L 163 170 L 163 171 L 162 172 L 162 174 L 161 175 L 161 177 L 160 178 L 160 188 L 161 189 L 161 190 L 160 191 L 158 191 L 157 192 L 155 192 L 154 193 L 153 193 L 150 196 L 150 197 L 149 198 L 149 199 L 148 200 L 148 201 L 147 202 L 147 215 L 148 216 L 194 216 L 196 218 L 197 218 L 198 219 L 199 219 L 200 220 L 202 220 L 203 221 L 207 221 L 203 221 L 202 220 L 200 220 L 199 219 L 198 219 L 197 218 L 196 218 L 194 216 L 148 216 L 147 215 L 147 202 L 148 201 L 148 200 L 149 199 L 149 198 L 150 197 L 150 196 L 153 193 L 154 193 L 155 192 L 157 192 L 158 191 L 162 191 L 163 192 L 164 192 L 170 198 L 171 198 L 172 199 L 177 199 L 178 200 L 180 200 L 181 201 L 180 200 L 178 200 L 177 199 L 172 199 L 171 198 L 170 198 L 164 192 L 163 192 L 161 190 L 161 189 L 160 188 L 160 178 L 161 177 L 161 175 L 162 174 L 162 172 L 163 171 L 163 170 L 164 169 L 164 168 L 166 166 L 166 164 L 167 163 L 167 161 L 168 160 L 168 159 L 177 150 L 179 150 L 180 149 L 182 149 L 183 148 L 193 148 L 194 149 L 196 149 L 197 150 L 197 151 L 212 166 L 213 166 L 214 167 L 213 166 L 212 166 L 197 151 L 197 147 L 198 146 L 198 144 L 199 143 L 199 142 L 200 141 L 200 140 L 205 135 L 206 135 L 207 134 L 208 134 L 209 133 L 211 133 L 212 132 L 218 132 L 219 133 L 224 133 L 225 134 L 226 134 L 227 135 L 227 139 L 228 140 L 228 178 L 229 179 L 228 178 L 228 140 L 227 139 L 227 133 L 228 132 L 228 130 L 233 125 L 235 125 L 236 124 L 239 124 L 240 125 L 242 125 L 243 126 L 244 126 L 246 128 L 247 128 L 248 129 L 248 319 L 247 320 L 246 320 L 245 321 L 244 321 L 243 322 L 242 322 L 241 323 L 234 323 L 233 322 L 232 322 L 231 321 L 230 321 L 228 319 L 228 260 L 227 259 L 227 257 L 226 256 L 226 255 L 205 234 L 204 234 L 202 232 L 200 232 L 199 231 L 151 231 L 148 234 L 148 235 L 147 236 L 147 238 L 146 239 L 146 247 L 147 248 L 147 251 L 148 252 L 148 253 L 149 254 L 149 255 L 156 262 L 157 262 L 159 264 L 160 264 L 161 265 L 168 265 L 169 266 L 179 266 L 180 267 L 180 277 L 179 278 L 179 279 L 176 282 L 176 283 L 175 284 L 175 287 L 174 288 L 174 291 L 175 292 L 175 295 L 180 300 L 182 300 L 183 301 L 183 307 L 184 308 L 184 312 L 185 313 L 185 314 L 194 323 L 195 323 L 197 325 L 199 325 L 200 326 L 203 326 L 204 327 L 214 327 L 215 326 L 217 326 L 218 325 L 219 325 L 221 323 L 222 323 L 224 321 L 225 321 L 226 320 L 229 320 L 230 321 L 231 321 L 232 322 L 233 322 L 234 323 L 241 323 L 242 322 L 243 322 L 244 321 L 245 321 L 246 320 L 249 320 L 250 321 L 252 321 L 253 322 L 254 322 L 255 323 L 262 323 L 263 322 L 264 322 L 265 321 L 266 321 L 267 320 L 271 320 L 272 321 L 273 321 L 276 324 L 277 324 L 278 325 L 279 325 L 280 326 L 285 326 L 286 327 L 291 327 L 292 326 L 297 326 L 298 325 L 299 325 L 300 324 L 301 324 L 302 323 L 303 323 L 310 316 L 310 315 L 311 314 L 311 313 L 312 312 L 312 306 L 313 305 L 313 301 L 314 300 L 316 300 L 320 296 L 320 295 L 321 294 L 321 284 L 319 282 L 319 281 L 316 278 L 315 278 L 314 277 L 314 267 L 315 266 L 328 266 L 329 265 L 334 265 L 335 264 L 337 264 L 338 263 L 339 263 L 341 261 L 342 261 L 345 258 L 345 257 L 347 255 L 347 254 L 349 252 L 349 249 L 350 248 L 350 239 L 349 238 L 349 236 L 348 235 L 348 234 L 345 231 L 297 231 L 296 232 L 294 232 L 293 233 L 292 233 L 272 253 L 272 254 L 271 255 L 271 256 L 270 257 L 270 258 L 269 259 L 269 319 L 268 320 L 267 320 L 266 321 L 265 321 L 264 322 L 263 322 L 262 323 L 255 323 L 254 322 L 253 322 L 252 321 L 250 321 L 248 319 L 248 129 L 249 128 L 250 128 L 251 127 L 252 127 L 254 125 L 256 125 L 257 124 L 259 124 L 260 125 L 263 125 L 267 129 L 267 131 L 268 132 L 268 133 L 269 134 L 269 179 L 269 135 L 270 134 L 271 134 L 272 133 L 276 133 L 277 132 L 283 132 L 284 133 L 287 133 L 288 134 L 289 134 L 296 141 L 296 142 L 297 143 L 297 144 L 298 145 L 298 148 L 299 149 L 299 150 L 298 151 L 298 153 L 292 159 L 291 159 L 282 168 L 291 159 L 292 159 L 298 153 L 298 151 L 300 149 L 302 149 L 303 148 L 311 148 L 312 149 L 315 149 L 316 150 L 318 150 L 321 153 L 322 153 L 325 156 L 325 157 L 327 159 L 327 161 L 328 162 L 328 163 L 329 164 L 329 165 L 330 166 L 330 167 L 331 168 L 331 169 L 332 170 L 332 171 L 333 172 L 333 173 L 334 174 L 334 178 L 335 179 L 335 189 L 328 196 L 327 196 L 325 198 L 324 198 L 323 199 L 320 199 L 319 200 L 316 200 L 315 201 L 316 200 L 319 200 L 320 199 L 323 199 L 324 198 L 325 198 L 327 196 L 328 196 L 333 191 L 336 191 L 337 192 L 340 192 L 341 193 L 342 193 L 347 198 L 347 199 L 348 200 L 348 204 L 349 205 L 349 215 L 348 216 L 303 216 L 302 217 L 301 217 L 299 219 L 296 219 L 295 220 L 293 220 L 292 221 L 288 221 L 292 221 L 293 220 L 295 220 L 296 219 L 299 219 L 301 217 L 302 217 L 303 216 L 348 216 L 349 215 L 349 205 L 348 204 L 348 200 L 347 199 L 347 198 L 342 193 L 341 193 L 340 192 L 337 192 L 336 191 L 335 191 L 334 190 L 335 189 L 335 179 L 334 178 L 334 174 L 333 173 L 333 172 L 332 171 L 332 170 L 331 169 L 331 168 L 330 167 L 330 166 L 329 165 L 329 164 L 328 163 L 328 162 L 327 161 L 327 159 L 325 157 L 325 156 L 322 153 L 321 153 L 318 150 L 316 150 L 315 149 L 312 149 L 311 148 L 303 148 L 302 149 L 299 149 L 298 148 L 298 145 L 297 144 L 297 143 L 296 142 L 296 141 L 289 134 L 288 134 L 287 133 L 284 133 L 283 132 L 277 132 L 276 133 L 272 133 L 271 134 L 269 134 L 268 133 L 268 132 L 267 131 L 267 129 L 263 125 L 260 125 L 259 124 L 257 124 L 256 125 L 254 125 L 252 127 L 251 127 L 250 128 L 246 128 L 244 126 L 243 126 L 242 125 L 240 125 L 239 124"/>
    <path d="M 296 232 L 297 231 L 345 231 L 348 234 L 348 235 L 349 236 L 349 238 L 350 239 L 350 248 L 349 249 L 349 252 L 347 254 L 347 255 L 345 257 L 345 258 L 342 261 L 341 261 L 339 263 L 338 263 L 337 264 L 335 264 L 334 265 L 329 265 L 328 266 L 315 266 L 314 267 L 314 276 L 313 277 L 306 277 L 305 278 L 304 278 L 305 278 L 306 277 L 314 277 L 315 278 L 316 278 L 319 281 L 319 282 L 321 284 L 321 294 L 320 295 L 320 296 L 316 300 L 314 300 L 313 301 L 312 301 L 311 300 L 310 300 L 307 297 L 305 297 L 304 296 L 294 296 L 293 295 L 293 258 L 294 257 L 294 256 L 295 255 L 295 254 L 300 249 L 302 249 L 303 248 L 327 248 L 328 247 L 327 248 L 303 248 L 302 249 L 300 249 L 295 254 L 295 255 L 294 256 L 294 257 L 293 258 L 293 306 L 292 307 L 293 306 L 293 297 L 294 296 L 304 296 L 305 297 L 307 297 L 310 300 L 311 300 L 313 302 L 313 305 L 312 306 L 312 312 L 311 313 L 311 314 L 310 315 L 310 316 L 303 323 L 302 323 L 301 324 L 300 324 L 299 325 L 298 325 L 297 326 L 292 326 L 291 327 L 286 327 L 285 326 L 280 326 L 279 325 L 278 325 L 277 324 L 276 324 L 273 321 L 272 321 L 271 320 L 270 320 L 269 319 L 269 259 L 270 258 L 270 257 L 271 256 L 271 255 L 272 254 L 272 253 L 292 233 L 293 233 L 294 232"/>
    <path d="M 151 231 L 199 231 L 200 232 L 202 232 L 204 234 L 205 234 L 226 255 L 226 256 L 227 257 L 227 259 L 228 260 L 228 319 L 227 320 L 226 320 L 225 321 L 224 321 L 222 323 L 221 323 L 219 325 L 218 325 L 217 326 L 215 326 L 214 327 L 204 327 L 203 326 L 200 326 L 199 325 L 197 325 L 195 323 L 194 323 L 185 314 L 185 313 L 184 312 L 184 308 L 183 307 L 183 301 L 184 300 L 185 300 L 186 299 L 187 299 L 188 298 L 189 298 L 190 297 L 192 297 L 193 296 L 202 296 L 203 297 L 203 305 L 204 306 L 205 306 L 204 306 L 203 305 L 203 256 L 201 254 L 201 253 L 198 250 L 197 250 L 196 249 L 194 249 L 193 248 L 171 248 L 170 247 L 171 248 L 193 248 L 194 249 L 196 249 L 197 250 L 198 250 L 201 253 L 201 254 L 203 256 L 203 295 L 202 296 L 193 296 L 192 297 L 190 297 L 189 298 L 188 298 L 187 299 L 186 299 L 185 300 L 180 300 L 175 295 L 175 292 L 174 291 L 174 288 L 175 287 L 175 284 L 176 283 L 176 282 L 179 279 L 179 278 L 180 277 L 189 277 L 190 278 L 191 278 L 190 278 L 189 277 L 181 277 L 180 276 L 180 267 L 179 266 L 169 266 L 168 265 L 161 265 L 160 264 L 159 264 L 157 262 L 156 262 L 149 255 L 149 254 L 148 253 L 148 252 L 147 251 L 147 248 L 146 247 L 146 239 L 147 238 L 147 236 L 148 235 L 148 234"/>
    <path d="M 182 169 L 182 170 L 181 171 L 181 181 L 181 172 L 182 171 L 192 171 L 193 172 L 196 172 L 198 174 L 199 174 L 201 176 L 201 177 L 203 179 L 203 193 L 204 194 L 204 196 L 205 197 L 205 198 L 210 203 L 211 203 L 212 204 L 214 204 L 215 205 L 218 205 L 219 206 L 222 206 L 223 207 L 224 207 L 229 212 L 229 222 L 230 223 L 230 224 L 230 223 L 229 222 L 229 212 L 224 207 L 223 207 L 222 206 L 219 206 L 218 205 L 215 205 L 214 204 L 212 204 L 211 203 L 210 203 L 205 198 L 205 197 L 204 196 L 204 194 L 203 193 L 203 179 L 201 177 L 201 176 L 199 174 L 198 174 L 196 172 L 193 172 L 192 171 L 183 171 L 182 170"/>
    <path d="M 314 170 L 313 171 L 304 171 L 303 172 L 301 172 L 300 173 L 299 173 L 294 178 L 294 180 L 293 181 L 293 190 L 292 191 L 292 196 L 291 197 L 291 198 L 287 202 L 286 202 L 285 203 L 284 203 L 283 204 L 281 204 L 280 205 L 279 205 L 278 206 L 276 206 L 275 207 L 274 207 L 271 210 L 271 211 L 270 212 L 270 214 L 269 215 L 269 226 L 269 215 L 270 214 L 270 212 L 271 211 L 271 210 L 274 207 L 275 207 L 276 206 L 278 206 L 279 205 L 280 205 L 281 204 L 283 204 L 284 203 L 285 203 L 286 202 L 287 202 L 291 198 L 291 197 L 292 196 L 292 191 L 293 190 L 293 181 L 294 180 L 294 178 L 299 173 L 300 173 L 301 172 L 303 172 L 304 171 L 313 171 L 314 170 L 315 171 L 315 181 L 315 171"/>
  </g>
</svg>