<?xml version="1.0" encoding="UTF-8"?>
<svg xmlns="http://www.w3.org/2000/svg" width="512" height="512" viewBox="110 50 330 325">
  <path fill="#BC232B" fill-rule="evenodd" d="M 259,54 L 258,176 L 242,191 L 238,202 L 238,220 L 248,239 L 259,246 L 259,369 L 290,369 L 327,362 L 356,350 L 386,329 L 405,309 L 418,289 L 432,255 L 437,228 L 437,197 L 431,167 L 418,136 L 403,114 L 379,90 L 357,75 L 325,61 L 292,54 Z M 276,194 L 286,195 L 296,206 L 296,215 L 292,222 L 281,228 L 273,227 L 263,216 L 265,201 Z M 302,98 L 339,113 L 367,137 L 388,172 L 395,206 L 392,241 L 383,264 L 370,284 L 342,309 L 303,325 L 300,285 L 302,244 L 318,228 L 321,204 L 314,187 L 301,176 Z"/>
  
  <path fill="#2D2D2D" fill-rule="evenodd" d="M 322,133 L 314,141 L 303,139 L 303,175 L 313,184 L 322,203 L 322,203 L 320,226 L 313,238 L 303,247 L 303,284 L 311,281 L 319,291 L 327,288 L 324,273 L 331,266 L 343,273 L 350,265 L 341,253 L 345,246 L 360,247 L 364,237 L 355,233 L 352,225 L 354,219 L 367,218 L 367,207 L 353,204 L 352,198 L 354,192 L 364,187 L 361,178 L 348,180 L 342,169 L 351,159 L 344,151 L 332,158 L 325,151 L 330,138 Z M 243,126 L 236,129 L 238,143 L 228,149 L 216,142 L 210,147 L 218,159 L 213,166 L 207,167 L 198,163 L 194,174 L 204,181 L 202,190 L 187,192 L 186,202 L 198,206 L 199,216 L 186,221 L 187,232 L 202,233 L 205,242 L 194,251 L 199,260 L 212,255 L 218,265 L 212,276 L 219,282 L 228,275 L 235,276 L 239,284 L 236,293 L 244,297 L 253,286 L 257,286 L 257,248 L 241,231 L 236,216 L 238,197 L 244,186 L 256,175 L 256,136 L 251,136 Z M 200,63 L 202,91 L 184,103 L 161,90 L 138,118 L 153,137 L 153,142 L 144,157 L 118,157 L 111,186 L 112,190 L 136,201 L 136,220 L 112,232 L 121,268 L 147,267 L 158,285 L 143,308 L 166,333 L 190,321 L 204,330 L 206,335 L 203,359 L 235,370 L 235,321 L 209,309 L 182,285 L 165,257 L 156,223 L 157,190 L 163,169 L 173,149 L 199,120 L 235,100 L 235,53 Z"/>
</svg>