<?xml version="1.0" encoding="UTF-8"?>
<svg xmlns="http://www.w3.org/2000/svg" width="332" height="371" viewBox="0 0 332 371">
  
  <!-- Kırmızı parçalar -->
  <path fill="#B92E39" fill-rule="evenodd" d="M 118,83 L 118,135 L 103,143 L 93,135 L 75,154 L 82,164 L 71,189 L 59,191 L 59,219 L 71,221 L 82,246 L 75,257 L 94,276 L 102,268 L 118,276 L 119,327 L 182,325 L 221,308 L 237,296 L 258,271 L 269,249 L 276,223 L 277,198 L 272,169 L 248,125 L 214,97 L 173,83 Z M 116,158 L 116,252 L 96,233 L 88,207 L 96,177 Z M 143,106 L 181,109 L 217,128 L 241,157 L 253,195 L 250,231 L 232,266 L 200,293 L 163,304 L 142,303 Z"/>
  
  <!-- Siyah parçalar -->
  <path fill="#2E2E2E" fill-rule="evenodd" d="M 161,133 L 161,152 L 176,158 L 190,170 L 199,184 L 203,200 L 197,230 L 183,247 L 161,258 L 161,277 L 188,267 L 197,276 L 216,256 L 208,248 L 221,220 L 232,219 L 232,192 L 220,189 L 208,162 L 216,153 L 197,134 L 186,142 Z"/>
</svg>