<?xml version="1.0" encoding="UTF-8"?>
<svg xmlns="http://www.w3.org/2000/svg" width="512" height="512" viewBox="140 120 220 220">
  <defs>
    <linearGradient id="brainGradient" x1="0%" y1="0%" x2="100%" y2="100%">
      <stop offset="0%" style="stop-color:#00F2FE;stop-opacity:1" />
      <stop offset="100%" style="stop-color:#4FACFE;stop-opacity:1" />
    </linearGradient>
  </defs>
  <g fill="none" stroke="url(#brainGradient)" stroke-width="4" stroke-linecap="round" stroke-linejoin="round">
    <path d="M 209 130 L 202 134 L 199 137 L 195 145 L 192 146 L 183 145 L 174 149 L 167 156 L 165 159 L 164 164 L 162 168 L 160 170 L 157 179 L 158 185 L 157 189 L 155 189 L 151 191 L 145 199 L 144 202 L 145 222 L 192 221 L 195 223 L 208 222 L 199 214 L 194 213 L 168 213 L 154 214 L 152 212 L 152 204 L 153 201 L 157 197 L 159 196 L 162 196 L 168 202 L 172 204 L 174 204 L 180 208 L 183 208 L 188 204 L 188 201 L 185 197 L 176 197 L 174 196 L 167 189 L 165 185 L 165 180 L 166 176 L 168 172 L 170 170 L 170 168 L 172 165 L 173 161 L 179 155 L 185 153 L 190 153 L 193 154 L 197 157 L 210 170 L 213 172 L 216 172 L 219 169 L 219 167 L 202 151 L 202 148 L 204 144 L 213 137 L 219 137 L 221 138 L 225 142 L 226 145 L 226 174 L 223 178 L 223 181 L 225 185 L 228 186 L 233 186 L 236 182 L 236 179 L 235 176 L 233 174 L 232 133 L 237 129 L 240 129 L 242 130 L 245 134 L 245 316 L 240 321 L 235 320 L 233 317 L 233 260 L 231 254 L 209 232 L 206 231 L 204 229 L 200 228 L 148 229 L 144 236 L 143 241 L 143 247 L 144 252 L 148 260 L 157 268 L 161 270 L 166 271 L 178 272 L 178 276 L 173 282 L 171 288 L 172 296 L 175 301 L 179 304 L 180 310 L 185 320 L 195 329 L 203 332 L 215 332 L 223 329 L 228 325 L 230 325 L 232 327 L 238 329 L 243 328 L 248 325 L 250 325 L 254 328 L 257 329 L 261 329 L 269 325 L 271 325 L 277 330 L 283 332 L 296 332 L 307 327 L 313 321 L 317 314 L 318 306 L 324 300 L 326 296 L 327 291 L 326 284 L 323 279 L 320 277 L 320 271 L 333 271 L 337 270 L 346 265 L 349 262 L 353 256 L 353 254 L 355 251 L 356 241 L 351 230 L 349 228 L 297 228 L 289 232 L 270 251 L 269 254 L 267 256 L 266 259 L 266 316 L 262 321 L 257 321 L 254 318 L 253 316 L 253 133 L 257 129 L 261 129 L 266 134 L 266 175 L 264 177 L 264 183 L 265 185 L 269 187 L 271 187 L 275 185 L 276 183 L 276 178 L 274 175 L 274 142 L 275 140 L 279 137 L 285 137 L 289 139 L 293 143 L 296 148 L 296 151 L 279 167 L 279 170 L 281 172 L 286 172 L 289 170 L 294 164 L 305 154 L 308 153 L 313 153 L 318 155 L 324 161 L 326 166 L 326 168 L 329 172 L 332 178 L 332 185 L 330 190 L 323 196 L 320 197 L 313 197 L 310 201 L 310 204 L 311 206 L 313 208 L 319 208 L 322 205 L 324 205 L 330 202 L 336 196 L 340 197 L 345 202 L 346 204 L 345 213 L 339 214 L 301 213 L 295 217 L 289 223 L 301 223 L 303 224 L 307 221 L 354 221 L 354 202 L 353 199 L 348 193 L 342 190 L 340 188 L 340 176 L 329 154 L 323 149 L 316 146 L 304 146 L 302 144 L 300 139 L 294 133 L 285 129 L 276 130 L 271 129 L 271 127 L 269 125 L 261 121 L 257 121 L 254 122 L 250 125 L 248 125 L 244 122 L 241 121 L 237 121 L 231 123 L 227 127 L 226 130 L 223 130 L 221 129 L 212 129 Z"/>
    <path d="M 154 236 L 200 236 L 210 244 L 223 257 L 226 264 L 226 313 L 225 316 L 222 319 L 215 324 L 211 325 L 204 324 L 197 321 L 189 313 L 188 310 L 188 305 L 190 303 L 194 301 L 200 304 L 200 311 L 203 314 L 208 314 L 210 313 L 212 308 L 212 306 L 210 303 L 208 302 L 208 257 L 205 251 L 198 246 L 177 246 L 173 243 L 169 243 L 167 244 L 166 246 L 166 252 L 170 255 L 174 255 L 176 253 L 194 253 L 196 254 L 201 260 L 200 293 L 193 293 L 183 298 L 179 293 L 179 288 L 180 285 L 183 282 L 195 281 L 194 275 L 185 274 L 185 263 L 165 263 L 157 258 L 155 256 L 151 249 L 151 241 L 152 238 Z"/>
    <path d="M 344 236 L 347 239 L 348 246 L 347 250 L 340 259 L 332 263 L 312 263 L 311 275 L 303 275 L 302 277 L 302 280 L 303 282 L 314 282 L 318 286 L 319 288 L 319 292 L 317 296 L 314 298 L 309 294 L 298 292 L 298 260 L 305 253 L 324 253 L 327 255 L 330 255 L 334 252 L 335 249 L 333 244 L 331 243 L 326 243 L 323 245 L 303 245 L 298 247 L 293 252 L 291 255 L 290 259 L 290 302 L 287 305 L 287 311 L 290 314 L 296 314 L 299 310 L 298 304 L 299 301 L 305 301 L 309 305 L 310 307 L 310 310 L 307 316 L 298 323 L 295 324 L 285 324 L 282 323 L 277 319 L 274 315 L 274 261 L 276 257 L 296 237 L 299 236 Z"/>
    <path d="M 317 165 L 313 165 L 309 168 L 301 169 L 297 171 L 292 176 L 290 182 L 290 194 L 289 196 L 284 201 L 279 202 L 276 204 L 274 204 L 268 210 L 266 215 L 266 220 L 264 222 L 264 228 L 267 231 L 274 230 L 276 225 L 274 220 L 274 216 L 275 214 L 280 210 L 288 208 L 296 201 L 298 195 L 298 182 L 303 177 L 305 176 L 311 179 L 310 181 L 310 184 L 313 188 L 315 189 L 319 189 L 321 188 L 323 184 L 323 182 L 321 178 L 321 169 Z"/>
    <path d="M 180 165 L 177 169 L 178 179 L 176 182 L 177 186 L 180 189 L 185 189 L 189 184 L 189 182 L 187 179 L 188 176 L 194 176 L 196 177 L 200 181 L 201 183 L 201 198 L 203 202 L 208 207 L 212 209 L 220 210 L 224 212 L 227 216 L 227 220 L 225 222 L 225 227 L 226 229 L 228 231 L 234 231 L 237 228 L 237 223 L 234 219 L 234 213 L 233 210 L 228 205 L 223 203 L 216 202 L 214 201 L 209 196 L 208 194 L 208 180 L 205 174 L 200 170 L 187 166 Z"/>
  </g>
</svg>